<svg xmlns="http://www.w3.org/2000/svg" viewBox="0 0 1280 720" width="1280" height="720"><rect width="1280" height="720" fill="#FBF8F1"/><rect x="0" y="0" width="1280" height="64" fill="#C8102E"/><circle cx="36" cy="32" r="14" fill="#FBF8F1"/><rect x="80" y="20" width="160" height="24" rx="4" fill="rgba(255,255,255,0.9)"/><rect x="260" y="20" width="100" height="24" rx="4" fill="rgba(255,255,255,0.8)"/><rect x="380" y="20" width="100" height="24" rx="4" fill="rgba(255,255,255,0.8)"/><rect x="500" y="20" width="100" height="24" rx="4" fill="rgba(255,255,255,0.8)"/><rect x="1000" y="20" width="120" height="24" rx="4" fill="rgba(255,255,255,0.7)"/><rect x="1140" y="20" width="100" height="24" rx="4" fill="#1A1A2E"/><rect x="40" y="90" width="1200" height="280" rx="12" fill="#E8E0D0"/><circle cx="640" cy="230" r="60" fill="#C8102E" opacity="0.2"/><text x="640" y="220" text-anchor="middle" fill="#1A1A2E" font-size="28" font-family="sans-serif" font-weight="bold">YARZ Premium Fashion</text><rect x="40" y="400" width="280" height="280" rx="12" fill="#E8E0D0"/><rect x="340" y="400" width="280" height="280" rx="12" fill="#E8E0D0"/><rect x="640" y="400" width="280" height="280" rx="12" fill="#E8E0D0"/><rect x="940" y="400" width="280" height="280" rx="12" fill="#E8E0D0"/><rect x="0" y="700" width="1280" height="20" fill="#1A1A2E"/></svg>